<svg width="113" height="42" viewBox="0 0 113 42" fill="none" xmlns="http://www.w3.org/2000/svg">
<path d="M0.12 41V7.736H19.944L19.128 13.352H7.992V22.184H17.688V27.8H7.992V41H0.12ZM40.7633 33.608C40.7633 34.568 40.8913 35.272 41.1473 35.72C41.4353 36.168 41.8833 36.504 42.4913 36.728L40.9073 41.672C39.3393 41.544 38.0593 41.208 37.0673 40.664C36.0753 40.088 35.3073 39.192 34.7633 37.976C33.0993 40.536 30.5393 41.816 27.0833 41.816C24.5553 41.816 22.5393 41.08 21.0353 39.608C19.5313 38.136 18.7793 36.216 18.7793 33.848C18.7793 31.064 19.8033 28.936 21.8513 27.464C23.8993 25.992 26.8593 25.256 30.7313 25.256H33.3233V24.152C33.3233 22.648 33.0033 21.624 32.3633 21.08C31.7233 20.504 30.6033 20.216 29.0033 20.216C28.1713 20.216 27.1633 20.344 25.9793 20.6C24.7953 20.824 23.5793 21.144 22.3313 21.56L20.6033 16.568C22.2033 15.96 23.8353 15.496 25.4993 15.176C27.1953 14.856 28.7633 14.696 30.2032 14.696C33.8513 14.696 36.5233 15.448 38.2193 16.952C39.9153 18.456 40.7633 20.712 40.7633 23.72V33.608ZM29.2913 36.392C31.0193 36.392 32.3633 35.576 33.3233 33.944V29.432H31.4513C29.7233 29.432 28.4273 29.736 27.5633 30.344C26.7313 30.952 26.3153 31.896 26.3153 33.176C26.3153 34.2 26.5713 35 27.0833 35.576C27.6273 36.12 28.3633 36.392 29.2913 36.392ZM33.9953 0.919998L36.9713 6.584L25.6433 11.144L23.5312 7.256L33.9953 0.919998ZM61.2521 14.696C64.2921 14.696 66.6281 15.896 68.2601 18.296C69.8921 20.664 70.7081 23.992 70.7081 28.28C70.7081 30.904 70.2921 33.24 69.4601 35.288C68.6601 37.336 67.4921 38.936 65.9561 40.088C64.4521 41.24 62.6601 41.816 60.5801 41.816C59.2041 41.816 57.9401 41.528 56.7881 40.952C55.6681 40.376 54.7081 39.576 53.9081 38.552L53.5241 41H46.8041V5.384L54.3881 4.568V18.104C55.1561 17.048 56.1321 16.216 57.3161 15.608C58.5321 15 59.8441 14.696 61.2521 14.696ZM58.3721 36.296C61.3481 36.296 62.8361 33.624 62.8361 28.28C62.8361 25.24 62.4841 23.144 61.7801 21.992C61.0761 20.84 60.0521 20.264 58.7081 20.264C57.0121 20.264 55.5721 21.256 54.3881 23.24V33.848C54.8681 34.616 55.4441 35.224 56.1161 35.672C56.8201 36.088 57.5721 36.296 58.3721 36.296ZM83.0288 15.512V41H75.4448V15.512H83.0288ZM79.1888 2.072C80.5008 2.072 81.5728 2.488 82.4048 3.32C83.2688 4.12 83.7008 5.144 83.7008 6.392C83.7008 7.64 83.2688 8.68 82.4048 9.512C81.5728 10.312 80.5008 10.712 79.1888 10.712C77.8768 10.712 76.8048 10.312 75.9728 9.512C75.1408 8.68 74.7248 7.64 74.7248 6.392C74.7248 5.144 75.1408 4.12 75.9728 3.32C76.8048 2.488 77.8768 2.072 79.1888 2.072ZM100.032 14.696C103.936 14.696 106.992 15.896 109.2 18.296C111.408 20.664 112.512 23.992 112.512 28.28C112.512 31 112 33.384 110.976 35.432C109.984 37.448 108.544 39.016 106.656 40.136C104.8 41.256 102.592 41.816 100.032 41.816C96.1596 41.816 93.1036 40.632 90.8636 38.264C88.6556 35.864 87.5516 32.52 87.5516 28.232C87.5516 25.512 88.0476 23.144 89.0396 21.128C90.0636 19.08 91.5036 17.496 93.3596 16.376C95.2476 15.256 97.4716 14.696 100.032 14.696ZM100.032 20.264C98.4956 20.264 97.3436 20.92 96.5756 22.232C95.8076 23.512 95.4236 25.512 95.4236 28.232C95.4236 31.016 95.7916 33.048 96.5276 34.328C97.2956 35.608 98.4636 36.248 100.032 36.248C101.568 36.248 102.72 35.608 103.488 34.328C104.256 33.016 104.64 31 104.64 28.28C104.64 25.496 104.256 23.464 103.488 22.184C102.752 20.904 101.6 20.264 100.032 20.264Z" fill="#141414"/>
</svg>
